<svg t="1569548486589" class="icon" viewBox="0 0 1024 1024" version="1.1" 
  xmlns="http://www.w3.org/2000/svg" p-id="12428" width="128" height="128">
  <path d="M945.82 856.93H78.18V663h24a76 76 0 0 0 0-152h-24V307h867.64v204h-24a76 76 0 1 0 0 152h24z m-819.64-48h771.64V708.64a124 124 0 0 1 0-243.34V355H126.18v110.3a124 124 0 0 1 0 243.34z" p-id="12429"></path>
  <path d="M363.84 524.74h264.57v48H363.84zM624.83 410.98h-67.88l-82.8 82.79L499.38 519h17.43l108.02-108.02z" p-id="12430"></path>
  <path d="M477.44 519h17.43l25.23-25.23-82.8-82.79h-67.88L477.44 519zM363.84 622h264.57v48H363.84z" p-id="12431"></path>
  <path d="M472.12 483.29h48v280h-48zM407.4 307h115.2l-144.31-66.15 50.56-50.56L545.55 307h67.89L428.85 122.41l-97.11 97.11-78.62-36L196.51 307h52.8l27.45-59.88z m-158.09 0h62.83" p-id="12432"></path>
</svg>