<svg t="1569548415867" class="icon" viewBox="0 0 1024 1024" version="1.1" 
  xmlns="http://www.w3.org/2000/svg" p-id="12285" width="128" height="128">
  <path d="M871.30112 959.00672 339.27168 959.00672c-13.568 0-24.57088-10.99776-24.57088-24.56576l0 0c0-13.568 10.99776-24.57088 24.57088-24.57088l532.02432 0c32.05632 0 58.04032-25.984 58.04032-58.04544l0-83.07712c-56.64256-20.8896-94.51008-75.02848-94.51008-135.56736 0-60.53888 37.86752-114.67776 94.51008-135.55712L929.33632 398.55104c0-32.05632-25.984-58.04032-58.04032-58.04032l-532.02432 0c-13.568 0-24.57088-10.99776-24.57088-24.56576l0 0c0-13.568 10.99776-24.57088 24.56576-24.57088l532.02944 0c59.20256 0 107.1872 47.98976 107.1872 107.18208l0 102.144c0 18.81088-11.97056 35.68128-29.83936 42.2144-21.12 7.72096-40.28928 20.68992-51.2512 40.33024-32.128 57.56928-3.13856 121.28768 50.5856 139.99104 18.24256 6.3488 30.50496 23.40864 30.50496 42.44992l0 86.144C978.47808 911.02208 930.49344 959.00672 871.30112 959.00672L871.30112 959.00672z" p-id="12286"></path>
  <path d="M252.31872 959.00672 152.70912 959.00672c-59.19744 0-107.1872-47.98976-107.1872-107.1872l0-86.13888c0-18.82112 11.97056-35.70176 29.84448-42.21952 21.11488-7.7056 40.2688-20.66944 51.2256-40.28928 32.14848-57.58976 3.15904-121.32352-50.57024-140.02688-18.24256-6.35392-30.49984-23.40864-30.49984-42.44992l0-102.144c0-59.19744 47.99488-107.1872 107.1872-107.18208l99.61984 0c13.56288 0 24.56576 10.99776 24.56576 24.57088l0 0c0 13.568-10.99776 24.56576-24.57088 24.56576l-99.61472 0c-32.0512 0-58.04032 25.984-58.04032 58.04032l0 99.08224c56.63744 20.86912 94.50496 75.008 94.50496 135.55712 0 60.53376-37.86752 114.67776-94.50496 135.55712l0 83.08224c0 32.06144 25.98912 58.04544 58.04544 58.04544l99.6096 0c13.568 0 24.57088 11.00288 24.57088 24.576l0 0C276.8896 948.00384 265.89184 959.00672 252.31872 959.00672L252.31872 959.00672z" p-id="12287"></path>
  <path d="M295.28576 406.33344 295.28576 406.33344zM271.71328 406.33344 271.71328 406.33344z" p-id="12288"></path>
  <path d="M295.28576 482.32448 295.28576 482.32448zM271.71328 482.32448 271.71328 482.32448z" p-id="12289"></path>
  <path d="M295.28576 556.1856 295.28576 556.1856zM271.71328 556.1856 271.71328 556.1856z" p-id="12290"></path>
  <path d="M295.28576 625.408 295.28576 625.408zM271.71328 625.408 271.71328 625.408z" p-id="12291"></path>
  <path d="M295.28576 694.84032 295.28576 694.84032zM271.71328 694.84032 271.71328 694.84032z" p-id="12292"></path>
  <path d="M295.28576 768.70144 295.28576 768.70144zM271.71328 768.70144 271.71328 768.70144z" p-id="12293"></path>
  <path d="M295.28576 837.92384 295.28576 837.92384zM271.71328 837.92384 271.71328 837.92384z" p-id="12294"></path>
  <path d="M502.31296 677.21728c-11.67872 0-21.18144 9.50272-21.18144 21.18144 0 11.67872 9.4976 21.18656 21.18144 21.18656l87.45472 0 0 57.12896c0 11.67872 9.4976 21.18144 21.18144 21.18144 11.68384 0 21.18144-9.4976 21.18144-21.18144l0-57.12896 87.4496 0c11.68384 0 21.18144-9.50272 21.18144-21.18656 0-11.6736-9.4976-21.18144-21.18144-21.18144l-87.4496 0 0-43.3664 82.6368 0c11.68384 0 21.18144-9.4976 21.18144-21.18144s-9.4976-21.18144-21.18144-21.18144l-82.6368 0 0-30.33088 91.06432-70.76864c4.46976-3.47136 7.31648-8.4736 8.0128-14.08512 0.70656-5.61664-0.8192-11.16672-4.28544-15.63136-7.17824-9.22624-20.52608-10.89024-29.72672-3.72736l-86.25152 67.02592-86.25664-67.02592c-9.216-7.15776-22.55872-5.50912-29.73184 3.72736-3.46624 4.46976-4.98688 10.01984-4.28544 15.63136 0.70656 5.61664 3.54816 10.61376 8.01792 14.08512l91.06944 70.76864 0 30.33088L507.14112 591.488c-11.68384 0-21.18656 9.4976-21.18656 21.18144s9.50272 21.18144 21.18656 21.18144l82.63168 0 0 43.3664L502.31296 677.21728 502.31296 677.21728z" p-id="12295"></path>
  <path d="M862.82752 76.7488l-701.65504 0c-59.19744 0-107.1872 47.98976-107.1872 107.1872l0 63.58016c0 13.568 11.00288 24.57088 24.57088 24.57088 13.57312 0 24.576-10.99776 24.576-24.57088L103.13216 183.92576c0-32.05632 25.984-58.04032 58.04032-58.04032l701.65504 0c32.05632 0 58.04032 25.984 58.04032 58.04032l0 63.58016c0 13.568 10.99776 24.57088 24.576 24.57088 13.568 0 24.57088-10.99776 24.57088-24.57088L970.01472 183.93088C970.01472 124.73344 922.02496 76.7488 862.82752 76.7488L862.82752 76.7488z" p-id="12296"></path>
</svg>