<svg t="1569548181588" class="icon" viewBox="0 0 1024 1024" version="1.1" 
  xmlns="http://www.w3.org/2000/svg" p-id="8426" width="128" height="128">
  <path d="M980.35712 794.0608l0.3584-0.04096L939.6224 259.77856l-0.3584 0.06144c-1.34656-10.0352-9.61024-17.90464-19.99872-17.90464l-143.84128 0 0-41.09312c0-90.7776-73.6-164.38272-164.3776-164.38272-61.28128 0-114.61632 33.59232-142.89408 83.31776 14.86848 1.52064 29.21984 4.77184 42.98752 9.33376 22.3744-31.10912 58.65472-51.55328 99.90656-51.55328 68.08576 0 123.2896 55.20384 123.2896 123.2896l0 41.09312-99.29216 0c5.73952 13.06624 10.23488 26.79296 13.12256 41.09824l86.16448 0 0 41.09312 20.73088 0c7.12192 0 13.94688 1.36704 20.36736 3.66592l0-44.76416 124.85632 0 31.60576 410.95168-91.32544 0 3.16928 41.088 91.29984 0 3.1744 41.09824-91.32544 0 3.16928 41.09824 110.3104 0c11.35616 0 20.54656-9.1904 20.54656-20.55168C980.89984 795.79136 980.50048 794.98752 980.35712 794.0608L980.35712 794.0608z" p-id="8427"></path>
  <path d="M816.3328 917.30944l-41.09824-534.24128-0.35328 0.04096c-1.34656-10.01984-9.61024-17.88416-19.99872-17.88416l-143.84128 0 0-41.09312c0-90.78272-73.6-164.38272-164.38272-164.38272-90.7776 0-164.3776 73.6-164.3776 164.38272l0 41.09312L138.4448 365.22496c-10.3936 0-18.64192 7.86432-20.00384 17.88416l-0.36352-0.04096-41.09312 534.24128 0.36352 0.04096c-0.14336 0.90112-0.54272 1.73056-0.54272 2.66752 0 11.35104 9.1904 20.55168 20.54656 20.55168l698.624 0c11.36128 0 20.55168-9.20064 20.55168-20.55168 0-0.94208-0.40448-1.77152-0.54272-2.66752L816.3328 917.30944 816.3328 917.30944zM323.37408 324.13696c0-68.08576 55.20384-123.2896 123.28448-123.2896 68.10624 0 123.2896 55.20384 123.2896 123.2896l0 41.09312L323.37408 365.23008 323.37408 324.13696 323.37408 324.13696zM157.42464 406.3232l124.8512 0 0 87.89504c-12.24192 7.12192-20.54656 20.224-20.54656 35.39456 0 22.70208 18.39616 41.088 41.09312 41.088 22.69696 0 41.09312-18.39104 41.09312-41.088 0-15.17056-8.30976-28.27264-20.54656-35.39456L323.36896 406.3232l246.57408 0 0 87.89504c-12.24192 7.12192-20.55168 20.224-20.55168 35.39456 0 22.70208 18.40128 41.088 41.09312 41.088s41.09824-18.39104 41.09824-41.088c0-15.17056-8.31488-28.27264-20.55168-35.39456L611.03104 406.3232l124.8512 0 31.60576 410.9568L125.83936 817.28 157.42464 406.3232 157.42464 406.3232zM119.5008 899.47136l3.16928-41.088 647.97696 0 3.16928 41.088L119.5008 899.47136 119.5008 899.47136z" p-id="8428"></path>
</svg>