<svg t="1569548319090" class="icon" viewBox="0 0 1024 1024" version="1.1" 
  xmlns="http://www.w3.org/2000/svg" p-id="11310" width="128" height="128">
  <path d="M525.6 561.2l-0.4-1C654 553.3 756.4 447 756.4 316.4 756.4 181.4 647 72 512 72S267.6 181.4 267.6 316.4 377 560.9 512 560.9c2.1 0 4.1-0.3 6.2-0.3l-0.2 0.5c-2 0-4-0.2-6.1-0.2-215.9 0-391 175.1-391 391.1H160c0-191.5 153-347.2 343.4-351.8l-89.3 238.9 107.7 103.2 107.7-103.2-88.9-237.9C721.6 615.8 864 767.2 864 952h39.1c0-211.5-167.8-383.6-377.5-390.8zM512 521.8c-113.4 0-205.3-91.9-205.3-205.3S398.6 111.2 512 111.2s205.3 91.9 205.3 205.3c0 113.3-91.9 205.3-205.3 205.3z m78.2 303.1l-68.4 68.4-68.4-58.7 68.4-176 68.4 166.3zM512 391.7c-47.7 0-86.4-42.4-86.4-94.8h-33.2c0 71 53.6 128.6 119.7 128.6s119.7-57.6 119.7-128.6h-33.2c-0.2 52.3-38.9 94.8-86.6 94.8z" p-id="11311"></path>
</svg>